<svg width="24" height="24" viewBox="0 0 24 24" fill="none" xmlns="http://www.w3.org/2000/svg">
<path d="M11.5625 6.53906C11.6641 6.53906 11.7188 6.47656 11.7344 6.38281C11.9688 5.11719 11.9453 5.05469 13.3047 4.8125C13.3984 4.78906 13.4609 4.73438 13.4609 4.63281C13.4609 4.53906 13.3984 4.47656 13.3047 4.46094C11.9453 4.21875 11.9688 4.15625 11.7344 2.89062C11.7188 2.79688 11.6641 2.73438 11.5625 2.73438C11.4609 2.73438 11.4062 2.79688 11.3906 2.89062C11.1562 4.15625 11.1797 4.21875 9.82031 4.46094C9.71875 4.47656 9.66406 4.53906 9.66406 4.63281C9.66406 4.73438 9.71875 4.78906 9.82031 4.8125C11.1797 5.05469 11.1562 5.11719 11.3906 6.38281C11.4062 6.47656 11.4609 6.53906 11.5625 6.53906ZM7.78125 11.9141C7.92969 11.9141 8.03125 11.8125 8.04688 11.6719C8.32812 9.58594 8.39844 9.58594 10.5547 9.17188C10.6875 9.14844 10.7891 9.05469 10.7891 8.90625C10.7891 8.76562 10.6875 8.66406 10.5547 8.64844C8.39844 8.34375 8.32031 8.27344 8.04688 6.15625C8.03125 6.00781 7.92969 5.90625 7.78125 5.90625C7.64062 5.90625 7.53906 6.00781 7.51562 6.16406C7.26562 8.25 7.14844 8.24219 5.00781 8.64844C4.875 8.67188 4.77344 8.76562 4.77344 8.90625C4.77344 9.0625 4.875 9.14844 5.03906 9.17188C7.16406 9.51562 7.26562 9.57031 7.51562 11.6562C7.53906 11.8125 7.64062 11.9141 7.78125 11.9141ZM13.0781 20.5547C13.2812 20.5547 13.4297 20.4062 13.4688 20.1953C14.0234 15.9219 14.625 15.2656 18.8594 14.7969C19.0781 14.7734 19.2266 14.6172 19.2266 14.4062C19.2266 14.2031 19.0781 14.0469 18.8594 14.0234C14.625 13.5547 14.0234 12.8984 13.4688 8.61719C13.4297 8.40625 13.2812 8.26562 13.0781 8.26562C12.875 8.26562 12.7266 8.40625 12.6953 8.61719C12.1406 12.8984 11.5312 13.5547 7.30469 14.0234C7.07812 14.0469 6.92969 14.2031 6.92969 14.4062C6.92969 14.6172 7.07812 14.7734 7.30469 14.7969C11.5234 15.3516 12.1094 15.9219 12.6953 20.1953C12.7266 20.4062 12.875 20.5547 13.0781 20.5547Z" fill="#F7CE46"/>
</svg>
